<svg width="227" height="168" viewBox="0 0 227 168" fill="none" xmlns="http://www.w3.org/2000/svg">
<path d="M6.5127 22.1476C14.8979 16.7571 27.695 16.5916 37.3238 15.6198C62.0642 13.1231 87.1426 11.0114 112.002 10.3976C121.647 10.1594 130.676 8.04761 140.463 8.04761C147.33 8.04761 186.656 4.08347 189.813 10.3976" stroke="black" stroke-width="13" stroke-linecap="round"/>
<path d="M27.6621 80.8978C31.3499 73.5221 80.5363 78.5478 86.6733 78.5478C104.429 78.5478 122.184 78.5478 139.94 78.5478C152.979 78.5478 192.684 72.0196 201.562 80.8978" stroke="black" stroke-width="13" stroke-linecap="round"/>
<path d="M18.2627 160.798C62.0451 157.43 105.008 153.748 149.08 153.748C172.841 153.748 196.602 153.748 220.363 153.748" stroke="black" stroke-width="13" stroke-linecap="round"/>
</svg>
