<svg width="228" height="228" viewBox="0 0 228 228" fill="none" xmlns="http://www.w3.org/2000/svg">
<path d="M80.2082 14.1459C58.6729 30.7752 41.015 52.1505 25.4558 74.3726C9.79496 96.74 7.10478 110.664 7.10478 137.912C7.10478 151.194 5.47428 164.194 15.077 174.801C32.01 193.504 58.7816 211.575 83.8183 217.411C119.321 225.687 151.993 219.253 183.095 202.204C218.122 183.003 221 150.837 221 115.327C221 98.2733 218.224 68.7841 204.604 56.0034C195.33 47.3005 190.042 37.7936 178.432 31.6116C168.68 26.4193 154.15 14.7606 142.482 14.1459C128.92 13.4314 91.2747 0.358299 80.2082 11.4357" stroke="black" stroke-width="13" stroke-linecap="round"/>
</svg>
