<svg width="620" height="126" viewBox="0 0 620 126" fill="none" xmlns="http://www.w3.org/2000/svg">
<rect x="1.25" y="1.25" width="617.5" height="123.5" rx="61.75" fill="#F6F5F7" stroke="black" stroke-width="2.5"/>
<path d="M95.6875 63.375C95.6875 77.5625 87.5 86.625 76.0625 86.625C64.5625 86.625 56.375 77.5625 56.375 63.375C56.375 49.1875 64.5625 40.125 76.0625 40.125C87.5 40.125 95.6875 49.1875 95.6875 63.375ZM91.375 63.375C91.375 51.3125 84.8125 44.3125 76.0625 44.3125C67.3125 44.3125 60.75 51.3125 60.75 63.375C60.75 75.375 67.25 82.4375 76.0625 82.4375C84.8125 82.4375 91.375 75.4375 91.375 63.375ZM105.607 98.75V52.0625H109.732V58.375H110.232C111.607 55.5 114.295 51.5625 120.545 51.5625C128.92 51.5625 134.607 58.5625 134.607 69.125C134.607 79.6875 128.92 86.6875 120.607 86.6875C114.42 86.6875 111.607 82.8125 110.232 79.875H109.92V98.75H105.607ZM109.857 69.0625C109.857 77.125 113.545 82.875 120.045 82.875C126.67 82.875 130.357 76.8125 130.357 69.0625C130.357 61.375 126.732 55.4375 120.045 55.4375C113.482 55.4375 109.857 61.0625 109.857 69.0625ZM157.84 86.6875C148.277 86.6875 142.277 79.5625 142.277 69.25C142.277 58.9375 148.402 51.5625 157.215 51.5625C164.59 51.5625 171.715 56.8125 171.715 68.3125V70.3125H146.527C146.715 77.9688 151.059 82.875 157.84 82.875C162.527 82.875 165.277 80.4375 166.465 78.3125H171.027C169.527 83 164.715 86.6875 157.84 86.6875ZM146.59 66.625H167.34C167.34 60.25 163.215 55.4375 157.277 55.4375C151.121 55.4375 146.934 60.5 146.59 66.625ZM185.323 64.9375V86H181.01V52.0625H185.135V57.4375H185.51C187.135 53.9375 190.51 51.625 195.51 51.625C202.385 51.625 207.01 56 207.01 64.0625V86H202.76V64.375C202.76 58.875 199.51 55.5 194.385 55.5C189.135 55.5 185.323 59.0625 185.323 64.9375ZM260.788 52.125C260.35 47.1875 256.1 44.0625 250.225 44.0625C243.975 44.0625 239.725 47.5625 239.725 52.3125C239.725 57 244.35 59.1875 248.663 60.375L253.35 61.6875C259.038 63.3125 265.725 66.25 265.725 73.875C265.725 81.1875 259.85 86.75 249.913 86.75C240.6 86.75 234.663 81.8125 234.163 74.5625H238.725C239.163 79.875 243.913 82.75 249.913 82.75C256.6 82.75 261.413 79.1875 261.413 73.8125C261.413 69.3125 257.538 67.25 252.038 65.6875L246.663 64.125C239.538 62 235.35 58.375 235.35 52.5C235.35 45.125 241.85 40.125 250.35 40.125C258.85 40.125 264.85 45.1875 265.163 52.125H260.788ZM288.958 86.6875C280.083 86.6875 273.895 79.5625 273.895 69.1875C273.895 58.75 280.083 51.5625 288.958 51.5625C297.833 51.5625 303.958 58.75 303.958 69.1875C303.958 79.5625 297.833 86.6875 288.958 86.6875ZM288.958 82.875C295.895 82.875 299.708 76.625 299.708 69.1875C299.708 61.75 295.895 55.4375 288.958 55.4375C281.958 55.4375 278.145 61.75 278.145 69.1875C278.145 76.625 281.958 82.875 288.958 82.875ZM334.878 72.875V52.0625H339.128V86H334.878V80.375H334.565C333.003 83.8125 329.503 86.4375 324.503 86.4375C318.003 86.4375 313.315 82.0625 313.315 74V52.0625H317.628V73.6875C317.628 78.875 320.94 82.3125 325.753 82.3125C330.19 82.3125 334.878 79.0625 334.878 72.875ZM350.172 86V52.0625H354.297V57.3125H354.61C355.985 53.875 359.61 51.5625 363.797 51.5625C364.485 51.5625 365.485 51.5625 365.985 51.625V55.9375C365.61 55.875 364.61 55.6875 363.485 55.6875C358.297 55.6875 354.485 59.25 354.485 64.1875V86H350.172ZM385.78 86.6875C376.53 86.6875 370.655 79.3125 370.655 69.1875C370.655 58.9375 376.717 51.5625 385.717 51.5625C392.592 51.5625 397.905 55.875 398.78 62.1875H394.53C393.717 58.5 390.53 55.4375 385.78 55.4375C379.342 55.4375 374.905 60.9375 374.905 69.0625C374.905 77.1875 379.217 82.875 385.78 82.875C390.155 82.875 393.592 80.25 394.53 76.0625H398.842C397.905 82.1875 392.905 86.6875 385.78 86.6875ZM421.763 86.6875C412.2 86.6875 406.2 79.5625 406.2 69.25C406.2 58.9375 412.325 51.5625 421.138 51.5625C428.513 51.5625 435.638 56.8125 435.638 68.3125V70.3125H410.45C410.638 77.9688 414.981 82.875 421.763 82.875C426.45 82.875 429.2 80.4375 430.388 78.3125H434.95C433.45 83 428.638 86.6875 421.763 86.6875ZM410.513 66.625H431.263C431.263 60.25 427.138 55.4375 421.2 55.4375C415.044 55.4375 410.856 60.5 410.513 66.625ZM463.103 86V40.75H467.54V82H488.978V86H463.103ZM496.585 76.5C496.585 69.625 502.147 67 509.085 66.4375C511.335 66.2812 516.835 65.9688 518.46 65.875V62.6875C518.46 58.125 515.522 55.375 510.21 55.375C505.772 55.375 502.772 57.4375 501.96 60.5H497.522C498.21 55.125 503.397 51.5625 510.46 51.5625C515.522 51.5625 522.71 53.75 522.71 63.0625V86H518.46V80.75H518.21C516.835 83.6875 513.46 86.75 507.772 86.75C501.585 86.75 496.585 83.0625 496.585 76.5ZM500.835 76.6875C500.835 80.6875 504.022 82.9375 508.397 82.9375C514.647 82.9375 518.46 78.4375 518.46 73.0625V69.4375L509.71 70.0625C503.71 70.5 500.835 72.8125 500.835 76.6875ZM534.63 86V40.75H538.88V58.375H539.255C540.568 55.5 543.255 51.5625 549.505 51.5625C557.88 51.5625 563.63 58.5625 563.63 69.125C563.63 79.6875 557.943 86.6875 549.568 86.6875C543.38 86.6875 540.63 82.8125 539.255 79.875H538.755V86H534.63ZM538.818 69.0625C538.818 77.125 542.568 82.875 549.005 82.875C555.693 82.875 559.318 76.8125 559.318 69.0625C559.318 61.375 555.755 55.4375 549.005 55.4375C542.505 55.4375 538.818 61.0625 538.818 69.0625Z" fill="black"/>
</svg>
