<svg width="623" height="136" viewBox="0 0 623 136" fill="none" xmlns="http://www.w3.org/2000/svg">
<path d="M335.538 129.727C275.208 129.727 224.933 130.765 164.922 130.798C155.686 130.809 158.376 132.5 149.013 132.5C143.184 132.5 124.683 132.616 119.013 134.074C103.013 136.574 92.5751 131.928 74.5 130.799C56.3844 129.666 37.4118 125.018 24.9702 110.432C21.3412 106.177 16.4122 101.886 12.345 98.0447C10.1557 95.977 9.10248 93.1942 6.98529 91.077C4.61898 88.7107 5.37204 84.5792 3.23346 81.9654C-1.28865 76.4384 2.08483 58.2589 4.36497 52.0699C6.96426 45.0147 10.451 40.3622 15.0249 34.2637C20.3359 27.1824 26.4696 20.2534 35 16.5C44.7929 12.1911 59.6196 7.761 70.5 7.52447C100.716 6.86759 123.699 3.69699 153.902 4.36818C178.694 4.91912 203.407 5.38057 228.224 5.38057C253.265 5.38057 278.033 7.52447 303.082 7.52447C327.834 7.52447 352.459 7.58687 377.165 6.21431C412.803 4.23441 448.294 1.09277 484.003 1.09277C505.093 1.09277 525.077 3.68326 545.938 5.61878C557.035 6.64847 575.098 7.04895 585 12C599.21 19.1051 607.642 29.7079 614.542 45.0427C616.92 50.3255 619.069 54.8496 619.069 60.8837C619.069 66.4615 621.212 71.5016 621.212 77.2607V77.6376C621.213 82.9762 621.214 88.0698 619.604 93.2209C616.927 101.79 613.782 108.152 607.873 115.136C603.153 120.714 589.901 125.589 583.218 126.511C566.549 128.81 549.174 127.583 532.36 127.583H481.621C433.025 127.583 384.268 129.727 335.538 129.727Z" fill="#F6F5F7"/>
<path d="M162.013 130.799C223.315 130.799 274.236 129.727 335.538 129.727C384.268 129.727 433.025 127.583 481.621 127.583C498.534 127.583 515.447 127.583 532.36 127.583C549.174 127.583 566.549 128.81 583.218 126.511C589.901 125.589 603.153 120.714 607.873 115.136C613.782 108.152 616.927 101.79 619.604 93.2209C621.252 87.9488 621.212 82.7368 621.212 77.2607C621.212 71.5016 619.069 66.4615 619.069 60.8837C619.069 54.8496 616.92 50.3255 614.542 45.0427C607.642 29.7079 599.21 19.1051 585 12C575.098 7.04895 557.035 6.64847 545.938 5.61878C525.077 3.68326 505.093 1.09277 484.003 1.09277C448.294 1.09277 412.804 4.23441 377.165 6.21431C352.459 7.58687 327.834 7.52447 303.082 7.52447C278.033 7.52447 253.265 5.38057 228.224 5.38057C203.407 5.38057 178.694 4.91912 153.902 4.36818C123.699 3.69699 100.716 6.86759 70.5 7.52447C59.6196 7.761 44.7929 12.1911 35 16.5C26.4696 20.2534 20.3359 27.1824 15.0249 34.2637C10.451 40.3622 6.96426 45.0147 4.36497 52.0699C2.08483 58.2589 -1.28865 76.4384 3.23346 81.9654C5.37204 84.5792 4.61898 88.7107 6.98529 91.077C9.10248 93.1942 10.1557 95.977 12.345 98.0447C16.4122 101.886 21.3412 106.177 24.9702 110.432C37.4118 125.018 56.3844 129.666 74.5 130.799C92.5751 131.928 103.013 136.574 119.013 134.074C124.683 132.616 143.184 132.5 149.013 132.5C158.406 132.5 155.668 130.798 165.013 130.798" stroke="black" stroke-width="2" stroke-linecap="round"/>
<path d="M101.125 74.3125C101.708 73.1458 102.333 71.625 103 69.75C103.667 67.8333 104 65.6875 104 63.3125C104 61.4792 103.729 59.625 103.188 57.75C102.688 56.125 102.083 54.6667 101.375 53.375C100.708 52.0417 99.9792 50.875 99.1875 49.875C98.3958 48.8333 97.5833 47.9375 96.75 47.1875C95.9583 46.4375 95.2083 45.8125 94.5 45.3125C92.9583 44.2292 91.5208 43.4792 90.1875 43.0625C88.8958 42.6458 87.8125 42.4375 86.9375 42.4375C85.7292 42.8125 84.7292 43.1875 83.9375 43.5625C83.1458 43.9375 82.7292 44.125 82.6875 44.125C82.4375 44.25 82.1667 44.3125 81.875 44.3125C81.3333 44.3125 80.9167 44.125 80.625 43.75C79.1667 44.5417 77.7708 45.9792 76.4375 48.0625C75.1042 50.1458 74 52.6875 73.125 55.6875C72.5417 57.6458 72.1042 59.6042 71.8125 61.5625C71.5208 63.5208 71.375 65.4375 71.375 67.3125C71.375 69.9375 71.6667 72.25 72.25 74.25C72.6667 75.5833 73.1875 76.75 73.8125 77.75C74.4375 78.75 75.125 79.6042 75.875 80.3125C76.625 80.9792 77.3958 81.5417 78.1875 82C79.0208 82.4167 79.7917 82.75 80.5 83C82.4167 83.7083 84.4583 84.0625 86.625 84.0625C88.5 84.0625 90.2917 83.8125 92 83.3125C93.2917 82.9375 94.7708 82 96.4375 80.5C98.1458 79 99.7083 76.9375 101.125 74.3125ZM96.5 42.5C97.3333 43.0833 98.2083 43.8125 99.125 44.6875C100.083 45.5625 101.021 46.5833 101.938 47.75C102.854 48.9167 103.708 50.25 104.5 51.75C105.292 53.2083 105.979 54.875 106.562 56.75C107.188 58.875 107.5 61.0625 107.5 63.3125C107.5 65.4375 107.208 67.5625 106.625 69.6875C106.083 71.8125 105.271 73.8958 104.188 75.9375C102.729 78.6042 101 80.9167 99 82.875C97 84.7917 95 86.0417 93 86.625C90.9167 87.25 88.7917 87.5625 86.625 87.5625C84.125 87.5625 81.6875 87.1458 79.3125 86.3125C78.3958 85.9792 77.4375 85.5417 76.4375 85C75.4375 84.4167 74.4583 83.6875 73.5 82.8125C72.5417 81.9375 71.6458 80.8958 70.8125 79.6875C70.0208 78.4375 69.375 76.9583 68.875 75.25C68.2083 73 67.875 70.3542 67.875 67.3125C67.875 65.3125 68.0208 63.25 68.3125 61.125C68.6458 58.9583 69.125 56.8125 69.75 54.6875C70.9167 50.6875 72.4375 47.4167 74.3125 44.875C76.2292 42.3333 78.3125 40.7083 80.5625 40C81.1875 39.8333 81.8333 39.75 82.5 39.75C82.7083 39.75 82.9167 39.75 83.125 39.75C83.3333 39.75 83.5417 39.7917 83.75 39.875C84.2917 39.6667 85.0208 39.4167 85.9375 39.125C86.3542 39 86.8542 38.9375 87.4375 38.9375C88.6875 38.9375 90.1042 39.25 91.6875 39.875C93.3125 40.5 94.9167 41.375 96.5 42.5ZM138.438 73.6875C138.646 73.1458 138.771 72.6042 138.812 72.0625C138.896 71.5208 138.938 70.9792 138.938 70.4375C138.938 69.1042 138.708 67.8125 138.25 66.5625C137.833 65.3125 137.271 64.1667 136.562 63.125C135.854 62.0417 135.062 61.0833 134.188 60.25C133.312 59.375 132.438 58.6667 131.562 58.125C130.521 57.5417 129.271 57.25 127.812 57.25C126.521 57.25 125.167 57.5 123.75 58C122.333 58.5 121.062 59.2917 119.938 60.375C119.521 60.7083 119.125 60.875 118.75 60.875C118.5 60.875 118.25 60.8125 118 60.6875C118.208 61.9792 118.438 63.4792 118.688 65.1875C118.938 66.8542 119.188 68.625 119.438 70.5C119.688 72.375 119.938 74.2917 120.188 76.25C120.438 78.2083 120.646 80.0833 120.812 81.875C121.396 82.125 121.75 82.6042 121.875 83.3125C121.875 83.3542 121.917 83.5 122 83.75C122.125 84 122.396 84.25 122.812 84.5C123.479 84.875 124.208 85.0625 125 85.0625C125.5 85.0625 125.979 85 126.438 84.875C126.938 84.75 127.396 84.625 127.812 84.5C128.938 84.0833 130.042 83.5 131.125 82.75C132.25 81.9583 133.292 81.0833 134.25 80.125C135.208 79.125 136.042 78.0833 136.75 77C137.5 75.875 138.062 74.7708 138.438 73.6875ZM133.375 55.1875C134.583 55.9375 135.729 56.8542 136.812 57.9375C137.938 59.0208 138.917 60.2292 139.75 61.5625C140.583 62.8958 141.229 64.3125 141.688 65.8125C142.188 67.3125 142.438 68.8542 142.438 70.4375C142.438 71.9792 142.208 73.4167 141.75 74.75C141.292 76.0833 140.625 77.4167 139.75 78.75C138.917 80.0833 137.938 81.3333 136.812 82.5C135.688 83.6667 134.438 84.7083 133.062 85.625C131.729 86.5417 130.375 87.25 129 87.75C127.625 88.2917 126.292 88.5625 125 88.5625C123.667 88.5625 122.396 88.2292 121.188 87.5625V89.0625C121.188 91.3542 121.25 93.7917 121.375 96.375C121.542 98.9583 121.708 101.354 121.875 103.562C122.042 105.771 122.188 107.604 122.312 109.062C122.479 110.562 122.562 111.354 122.562 111.438C122.562 111.896 122.417 112.292 122.125 112.625C121.833 112.958 121.396 113.146 120.812 113.188C120.354 113.188 119.958 113.042 119.625 112.75C119.333 112.458 119.146 112.083 119.062 111.625C119.062 111.583 118.979 110.812 118.812 109.312C118.688 107.854 118.542 106 118.375 103.75C118.208 101.542 118.042 99.125 117.875 96.5C117.75 93.875 117.688 91.3958 117.688 89.0625C117.688 87.5625 117.583 85.7292 117.375 83.5625C117.208 81.3958 116.979 79.1458 116.688 76.8125C116.438 74.4375 116.146 72.0833 115.812 69.75C115.479 67.4167 115.167 65.3125 114.875 63.4375C114.583 61.5625 114.333 60.0417 114.125 58.875C113.958 57.6667 113.875 57.0208 113.875 56.9375C113.875 55.9792 114.458 55.3958 115.625 55.1875C116.083 55.1875 116.458 55.3125 116.75 55.5625C117.083 55.8125 117.292 56.1667 117.375 56.625L117.562 57.8125C119.062 56.3958 120.708 55.375 122.5 54.75C124.292 54.0833 126.042 53.75 127.75 53.75C129.958 53.75 131.833 54.2292 133.375 55.1875ZM162.062 56.5C161.688 56.5 160.938 56.7083 159.812 57.125C158.729 57.5 157.583 58.2083 156.375 59.25C155.208 60.25 154.104 61.6667 153.062 63.5C152.062 65.2917 151.438 67.6042 151.188 70.4375C151.896 70.2708 152.688 70.0833 153.562 69.875C154.479 69.6667 155.375 69.4792 156.25 69.3125C157.167 69.1042 158.021 68.9375 158.812 68.8125C159.646 68.6875 160.312 68.625 160.812 68.625C161.396 68.625 162.125 68.5 163 68.25C163.917 67.9583 164.812 67.6667 165.688 67.375C166.396 67.125 167.062 66.9167 167.688 66.75C168.312 66.5417 168.917 66.3542 169.5 66.1875C169.333 64.5208 168.979 63.0833 168.438 61.875C167.896 60.6667 167.271 59.6667 166.562 58.875C165.854 58.0833 165.104 57.5 164.312 57.125C163.521 56.7083 162.771 56.5 162.062 56.5ZM173.875 85.125C174.333 85.125 174.708 85.2708 175 85.5625C175.333 85.8542 175.542 86.2917 175.625 86.875C175.625 87.3333 175.479 87.7083 175.188 88C174.938 88.3333 174.583 88.5417 174.125 88.625C174.042 88.625 173.667 88.6667 173 88.75C172.333 88.875 171.542 89 170.625 89.125C169.708 89.25 168.75 89.3542 167.75 89.4375C166.75 89.5208 165.896 89.5625 165.188 89.5625C159.646 89.5625 155.396 88.1042 152.438 85.1875C149.479 82.2292 147.854 78.0833 147.562 72.75C147.479 70.0417 147.708 67.6667 148.25 65.625C148.833 63.5833 149.583 61.8333 150.5 60.375C151.458 58.9167 152.521 57.7083 153.688 56.75C154.854 55.7917 155.979 55.0417 157.062 54.5C158.188 53.9583 159.188 53.5833 160.062 53.375C160.979 53.125 161.646 53 162.062 53C163.146 53 164.292 53.2708 165.5 53.8125C166.75 54.3542 167.896 55.1875 168.938 56.3125C170.021 57.3958 170.938 58.7917 171.688 60.5C172.438 62.2083 172.896 64.2292 173.062 66.5625C173.312 66.8958 173.438 67.2708 173.438 67.6875C173.438 68.1042 173.312 68.4583 173.062 68.75C172.854 69.5833 172.292 70 171.375 70C170.958 70 170.604 69.875 170.312 69.625C169.188 69.875 168.021 70.2292 166.812 70.6875C165.729 71.0625 164.667 71.3958 163.625 71.6875C162.583 71.9792 161.646 72.125 160.812 72.125C160.354 72.125 159.729 72.1875 158.938 72.3125C158.188 72.4375 157.354 72.6042 156.438 72.8125C155.521 73.0208 154.583 73.25 153.625 73.5C152.708 73.7083 151.875 73.9167 151.125 74.125C151.292 76.7083 151.875 78.7917 152.875 80.375C153.917 81.9167 155.125 83.125 156.5 84C157.917 84.8333 159.396 85.3958 160.938 85.6875C162.521 85.9375 163.938 86.0625 165.188 86.0625C165.854 86.0625 166.667 86.0208 167.625 85.9375C168.583 85.8542 169.5 85.75 170.375 85.625C171.25 85.5 172.021 85.3958 172.688 85.3125L173.625 85.1875L173.875 85.125ZM210.75 80.5C210.75 81.0833 210.812 81.6875 210.938 82.3125C211.104 82.9375 211.292 83.5417 211.5 84.125C211.708 84.6667 211.917 85.1667 212.125 85.625C212.333 86.0833 212.5 86.4375 212.625 86.6875C212.75 86.9375 212.812 87.2292 212.812 87.5625C212.812 88.2292 212.521 88.7292 211.938 89.0625C211.771 89.1458 211.625 89.2083 211.5 89.25C211.375 89.2917 211.229 89.3125 211.062 89.3125C210.396 89.3125 209.896 89 209.562 88.375C209.521 88.3333 209.375 88.0833 209.125 87.625C208.875 87.125 208.604 86.5 208.312 85.75C208.062 85 207.812 84.1667 207.562 83.25C207.354 82.3333 207.25 81.4167 207.25 80.5C207.25 80.2917 207.229 80.0625 207.188 79.8125C207.188 79.5208 207.167 79.2083 207.125 78.875C207.083 78.2917 207.042 77.6667 207 77C206.958 76.2917 206.938 75.4583 206.938 74.5C206.938 73.875 206.896 73.2292 206.812 72.5625C206.729 71.8542 206.646 71.0833 206.562 70.25C206.438 69.2083 206.312 68.1042 206.188 66.9375C206.104 65.7292 206.062 64.4583 206.062 63.125C206.062 62.2917 205.875 61.3958 205.5 60.4375C205.167 59.4375 204.667 58.5208 204 57.6875C203.333 56.8542 202.5 56.1667 201.5 55.625C200.542 55.0833 199.417 54.8125 198.125 54.8125C196.5 54.8125 195.042 55.125 193.75 55.75C192.5 56.3333 191.417 57.0833 190.5 58C189.583 58.9167 188.792 59.9167 188.125 61C187.5 62.0417 187 63.0417 186.625 64C186.25 64.9167 185.958 65.7083 185.75 66.375C185.583 67.0417 185.5 67.4167 185.5 67.5C185.375 67.875 185.208 68.1667 185 68.375V69.5C185 70.5 185.146 71.6458 185.438 72.9375C185.729 74.2292 186.062 75.6042 186.438 77.0625C186.896 78.9375 187.333 80.8958 187.75 82.9375C188.208 84.9792 188.438 87.0625 188.438 89.1875C188.438 89.6875 188.271 90.1042 187.938 90.4375C187.604 90.7708 187.188 90.9375 186.688 90.9375C186.229 90.9375 185.812 90.7708 185.438 90.4375C185.104 90.1042 184.938 89.6875 184.938 89.1875C184.938 87.2708 184.729 85.3542 184.312 83.4375C183.938 81.5208 183.521 79.6875 183.062 77.9375C182.646 76.3958 182.271 74.9167 181.938 73.5C181.646 72.0417 181.5 70.7083 181.5 69.5C181.5 68.2917 181.417 66.7708 181.25 64.9375C181.083 63.1042 180.875 61.3333 180.625 59.625C180.417 57.875 180.208 56.375 180 55.125C179.833 53.8333 179.75 53.1458 179.75 53.0625C179.75 52.6458 179.896 52.2708 180.188 51.9375C180.479 51.6042 180.917 51.3958 181.5 51.3125C181.958 51.3125 182.333 51.4583 182.625 51.75C182.958 52 183.167 52.3542 183.25 52.8125C183.25 52.8958 183.292 53.1667 183.375 53.625C183.458 54.0417 183.542 54.625 183.625 55.375C183.708 56.0833 183.812 56.8958 183.938 57.8125C184.062 58.7292 184.188 59.6875 184.312 60.6875C184.938 59.5208 185.667 58.375 186.5 57.25C187.375 56.125 188.375 55.125 189.5 54.25C190.667 53.375 191.958 52.6667 193.375 52.125C194.792 51.5833 196.375 51.3125 198.125 51.3125C199.833 51.3125 201.375 51.6667 202.75 52.375C204.167 53.0417 205.375 53.9375 206.375 55.0625C207.375 56.1875 208.146 57.4583 208.688 58.875C209.271 60.2917 209.562 61.7083 209.562 63.125C209.562 64.375 209.604 65.5625 209.688 66.6875C209.812 67.8125 209.938 68.8542 210.062 69.8125C210.146 70.6458 210.229 71.4583 210.312 72.25C210.396 73.0417 210.438 73.7917 210.438 74.5C210.438 76.1667 210.5 77.5 210.625 78.5C210.667 78.875 210.688 79.2292 210.688 79.5625C210.729 79.8542 210.75 80.1667 210.75 80.5ZM258.75 56.9375C260.75 57.4792 262.542 58.375 264.125 59.625C265.708 60.8333 267.042 62.2292 268.125 63.8125C269.208 65.3542 270.042 66.9792 270.625 68.6875C271.208 70.3542 271.5 71.9167 271.5 73.375L271.438 74.3125C271.396 75.4375 271.312 76.6458 271.188 77.9375C271.062 79.1875 270.688 80.4375 270.062 81.6875C269.438 82.8958 268.438 84.0417 267.062 85.125C265.729 86.1667 263.854 87.0208 261.438 87.6875C260.229 88.0625 259.125 88.3125 258.125 88.4375C257.167 88.6042 256.229 88.6875 255.312 88.6875C253.979 88.6875 252.646 88.5417 251.312 88.25C250.021 87.9583 248.438 87.5625 246.562 87.0625C244.854 86.6458 243.396 85.9792 242.188 85.0625C240.979 84.1042 239.979 83.1667 239.188 82.25C238.396 81.2917 237.812 80.4583 237.438 79.75C237.062 79 236.854 78.5833 236.812 78.5C236.688 78.3333 236.625 78.1042 236.625 77.8125C236.625 77.1042 236.979 76.5625 237.688 76.1875C238.021 76.1042 238.25 76.0625 238.375 76.0625C238.708 76.0625 239.021 76.1667 239.312 76.375C239.646 76.5417 239.875 76.7917 240 77.125L240.438 77.9375C240.729 78.5208 241.188 79.1875 241.812 79.9375C242.438 80.6458 243.229 81.375 244.188 82.125C245.146 82.8333 246.292 83.375 247.625 83.75C249.375 84.2083 250.812 84.5625 251.938 84.8125C253.104 85.0625 254.229 85.1875 255.312 85.1875C256.729 85.1875 258.458 84.9167 260.5 84.375C262.292 83.8333 263.688 83.2083 264.688 82.5C265.688 81.7917 266.417 81 266.875 80.125C267.333 79.25 267.604 78.3125 267.688 77.3125C267.812 76.3125 267.896 75.2708 267.938 74.1875L268 73.0625C268 72.1875 267.771 71.1042 267.312 69.8125C266.896 68.5208 266.271 67.25 265.438 66C264.604 64.75 263.542 63.6042 262.25 62.5625C261 61.5208 259.542 60.7917 257.875 60.375C256.75 60.0417 255.542 59.8125 254.25 59.6875C253 59.5625 251.75 59.4375 250.5 59.3125C249.042 59.1875 247.604 59.0417 246.188 58.875C244.812 58.7083 243.562 58.4167 242.438 58C241.312 57.5417 240.375 56.9375 239.625 56.1875C238.917 55.3958 238.5 54.3333 238.375 53C238.375 52.8333 238.354 52.6875 238.312 52.5625C238.312 52.4375 238.312 52.3125 238.312 52.1875C238.312 50.5625 238.625 49.1875 239.25 48.0625C239.917 46.8958 240.708 45.9167 241.625 45.125C242.583 44.3333 243.562 43.6875 244.562 43.1875C245.604 42.6875 246.5 42.2708 247.25 41.9375C248.208 41.4792 249.354 41.1667 250.688 41C252.062 40.7917 253.542 40.6875 255.125 40.6875C256.542 40.6875 257.958 40.7708 259.375 40.9375C260.833 41.1042 262.25 41.3542 263.625 41.6875C264.542 41.8958 264.979 42.5833 264.938 43.75C264.854 44.1667 264.625 44.5 264.25 44.75C263.875 45 263.396 45.1042 262.812 45.0625C261.604 44.7292 260.312 44.5 258.938 44.375C257.604 44.25 256.312 44.1875 255.062 44.1875C253.729 44.1875 252.5 44.2708 251.375 44.4375C250.292 44.5625 249.375 44.7917 248.625 45.125C247.75 45.5 246.896 45.9167 246.062 46.375C245.229 46.7917 244.5 47.2917 243.875 47.875C243.25 48.4583 242.75 49.1458 242.375 49.9375C242.042 50.7292 241.875 51.6667 241.875 52.75C241.958 53.8333 242.771 54.5625 244.312 54.9375C245.896 55.3125 248.042 55.6042 250.75 55.8125C252.083 55.9375 253.417 56.0833 254.75 56.25C256.125 56.375 257.458 56.6042 258.75 56.9375ZM290.875 85.8125C291.667 85.8125 292.667 85.4375 293.875 84.6875C295.125 83.8958 296.333 82.8125 297.5 81.4375C298.667 80.0208 299.667 78.3333 300.5 76.375C301.333 74.4167 301.75 72.2292 301.75 69.8125C301.75 67.4792 301.458 65.4375 300.875 63.6875C300.333 61.8958 299.688 60.3958 298.938 59.1875C298.229 57.9375 297.5 57 296.75 56.375C296.042 55.75 295.521 55.3958 295.188 55.3125C294.479 55.3125 293.833 55.375 293.25 55.5C292.708 55.5833 292.333 55.6458 292.125 55.6875C291.625 55.6875 291.167 55.4792 290.75 55.0625C289.708 55.4792 288.625 56.4167 287.5 57.875C286.375 59.3333 285.333 61.0417 284.375 63C283.417 64.9167 282.625 66.9792 282 69.1875C281.375 71.3542 281.062 73.3542 281.062 75.1875C281.062 77.1042 281.396 78.75 282.062 80.125C282.729 81.4583 283.562 82.5417 284.562 83.375C285.562 84.2083 286.625 84.8333 287.75 85.25C288.875 85.625 289.917 85.8125 290.875 85.8125ZM295.25 51.8125C296.125 51.8125 297.125 52.25 298.25 53.125C299.417 53.9583 300.5 55.1667 301.5 56.75C302.542 58.2917 303.417 60.1667 304.125 62.375C304.875 64.5833 305.25 67.0625 305.25 69.8125C305.25 72.6042 304.771 75.1875 303.812 77.5625C302.854 79.9375 301.646 82 300.188 83.75C298.771 85.5 297.208 86.875 295.5 87.875C293.833 88.8333 292.292 89.3125 290.875 89.3125C289.25 89.3125 287.646 89 286.062 88.375C284.479 87.75 283.062 86.8542 281.812 85.6875C280.562 84.4792 279.542 83 278.75 81.25C277.958 79.5 277.562 77.4792 277.562 75.1875C277.562 73.7292 277.75 72.125 278.125 70.375C278.5 68.625 279 66.875 279.625 65.125C280.292 63.3333 281.062 61.625 281.938 60C282.854 58.3333 283.833 56.8542 284.875 55.5625C285.917 54.2708 287.021 53.25 288.188 52.5C289.354 51.7083 290.542 51.3125 291.75 51.3125C292.208 51.3125 292.604 51.375 292.938 51.5C293.312 51.5833 293.646 51.7083 293.938 51.875C294.146 51.875 294.354 51.875 294.562 51.875C294.771 51.8333 295 51.8125 295.25 51.8125ZM339.812 72.625C340.729 72.8333 341.188 73.5208 341.188 74.6875C340.979 75.5208 340.688 76.4792 340.312 77.5625C339.979 78.6042 339.521 79.6667 338.938 80.75C339.188 82.75 339.417 84.4792 339.625 85.9375C339.833 87.3958 339.958 88.2083 340 88.375C340 88.8333 339.854 89.2083 339.562 89.5C339.271 89.8333 338.833 90.0417 338.25 90.125C337.792 90.125 337.396 89.9792 337.062 89.6875C336.771 89.4375 336.583 89.0833 336.5 88.625C336.5 88.5417 336.438 88.1875 336.312 87.5625C336.229 86.8958 336.125 86.0625 336 85.0625C334.708 86.5208 333.167 87.7292 331.375 88.6875C329.583 89.6458 327.5 90.125 325.125 90.125C323.417 90.125 321.854 89.7708 320.438 89.0625C319.021 88.3958 317.812 87.5 316.812 86.375C315.812 85.25 315.042 84 314.5 82.625C313.958 81.2083 313.688 79.7708 313.688 78.3125C313.688 77.0625 313.625 75.875 313.5 74.75C313.417 73.625 313.312 72.5833 313.188 71.625C313.104 70.7917 313.021 70 312.938 69.25C312.854 68.4583 312.812 67.6875 312.812 66.9375C312.812 66.1042 312.792 65.3542 312.75 64.6875C312.708 64.0208 312.646 63.4375 312.562 62.9375C312.521 62.5625 312.479 62.2292 312.438 61.9375C312.438 61.6042 312.438 61.2708 312.438 60.9375C312.438 60.3542 312.354 59.75 312.188 59.125C312.062 58.5 311.896 57.9167 311.688 57.375C311.521 56.7917 311.333 56.2708 311.125 55.8125C310.917 55.3542 310.75 55 310.625 54.75C310.458 54.5417 310.375 54.2708 310.375 53.9375C310.375 53.2292 310.688 52.7083 311.312 52.375C311.562 52.25 311.833 52.1875 312.125 52.1875C312.833 52.1875 313.354 52.4792 313.688 53.0625C313.688 53.1042 313.812 53.375 314.062 53.875C314.312 54.3333 314.562 54.9375 314.812 55.6875C315.104 56.4375 315.354 57.2708 315.562 58.1875C315.812 59.1042 315.938 60.0208 315.938 60.9375C315.938 61.1458 315.938 61.3958 315.938 61.6875C315.979 61.9792 316.021 62.2917 316.062 62.625C316.146 63.1667 316.208 63.7917 316.25 64.5C316.292 65.1667 316.312 65.9792 316.312 66.9375C316.312 67.5625 316.354 68.2292 316.438 68.9375C316.521 69.6042 316.604 70.3542 316.688 71.1875C316.771 72.2708 316.875 73.3958 317 74.5625C317.125 75.7292 317.188 76.9792 317.188 78.3125C317.188 79.1875 317.354 80.1042 317.688 81.0625C318.062 82.0208 318.583 82.9167 319.25 83.75C319.917 84.5833 320.729 85.2708 321.688 85.8125C322.688 86.3542 323.833 86.625 325.125 86.625C326.417 86.625 327.583 86.4375 328.625 86.0625C329.667 85.6875 330.604 85.1875 331.438 84.5625C332.271 83.9375 333 83.25 333.625 82.5C334.292 81.7083 334.854 80.8958 335.312 80.0625C335.104 78.5208 334.917 76.9792 334.75 75.4375C334.625 73.8958 334.521 72.5 334.438 71.25C334.354 69.7917 334.188 68.125 333.938 66.25C333.729 64.375 333.5 62.6042 333.25 60.9375C333.042 59.2708 332.833 57.8542 332.625 56.6875C332.458 55.4792 332.375 54.8333 332.375 54.75C332.375 54.3333 332.521 53.9583 332.812 53.625C333.104 53.2917 333.542 53.0833 334.125 53C334.542 53 334.896 53.1458 335.188 53.4375C335.521 53.6875 335.729 54.0208 335.812 54.4375C335.812 54.5625 335.896 55.2083 336.062 56.375C336.271 57.5417 336.5 58.9583 336.75 60.625C337 62.2917 337.229 64.0833 337.438 66C337.688 67.875 337.854 69.5625 337.938 71.0625C337.938 71.3958 337.938 71.75 337.938 72.125C337.979 72.4583 338.021 72.8333 338.062 73.25C338.271 73.0417 338.5 72.875 338.75 72.75C339 72.625 339.354 72.5833 339.812 72.625ZM365.25 52.3125C366.167 52.3125 366.938 52.3958 367.562 52.5625C368.188 52.6875 368.688 52.8542 369.062 53.0625C369.479 53.2292 369.792 53.4167 370 53.625C370.25 53.8333 370.417 54 370.5 54.125C370.708 54.4167 370.812 54.7292 370.812 55.0625C370.812 55.7292 370.562 56.2083 370.062 56.5C369.812 56.7083 369.479 56.8125 369.062 56.8125C368.562 56.8125 368.125 56.625 367.75 56.25C367.667 56.2083 367.438 56.125 367.062 56C366.729 55.875 366.125 55.8125 365.25 55.8125C364.75 55.8125 363.854 56.125 362.562 56.75C361.271 57.375 359.958 58.3958 358.625 59.8125C357.292 61.2292 356.083 63.0833 355 65.375C353.958 67.625 353.438 70.3958 353.438 73.6875C353.562 74.2292 353.688 74.7917 353.812 75.375C353.938 75.9167 354.083 76.4792 354.25 77.0625C354.708 78.9375 355.167 80.8958 355.625 82.9375C356.083 84.9792 356.312 87.0625 356.312 89.1875C356.312 89.6875 356.125 90.1042 355.75 90.4375C355.417 90.7708 355.021 90.9375 354.562 90.9375C354.062 90.9375 353.646 90.7708 353.312 90.4375C352.979 90.1042 352.812 89.6875 352.812 89.1875C352.812 87.2708 352.604 85.3542 352.188 83.4375C351.771 81.5208 351.333 79.6875 350.875 77.9375C350.458 76.3958 350.083 74.9167 349.75 73.5C349.458 72.0417 349.312 70.7083 349.312 69.5C349.312 68.2917 349.229 66.7708 349.062 64.9375C348.896 63.1042 348.688 61.3333 348.438 59.625C348.229 57.875 348.042 56.375 347.875 55.125C347.708 53.8333 347.625 53.1458 347.625 53.0625C347.625 52.6458 347.771 52.2708 348.062 51.9375C348.354 51.6042 348.792 51.3958 349.375 51.3125C349.792 51.3125 350.146 51.4583 350.438 51.75C350.771 52 350.979 52.3542 351.062 52.8125C351.062 52.8958 351.104 53.25 351.188 53.875C351.312 54.4583 351.438 55.2083 351.562 56.125C351.688 57.0417 351.812 58.0833 351.938 59.25C352.104 60.4167 352.25 61.5833 352.375 62.75C353.208 61.0417 354.188 59.5417 355.312 58.25C356.479 56.9167 357.667 55.8125 358.875 54.9375C360.083 54.0625 361.25 53.4167 362.375 53C363.5 52.5417 364.458 52.3125 365.25 52.3125ZM390.938 84.5C391.229 84.3333 391.562 84.25 391.938 84.25C392.562 84.25 393.042 84.5 393.375 85C393.583 85.3333 393.688 85.6667 393.688 86C393.688 86.5417 393.417 87.0208 392.875 87.4375L392.438 87.75C392.104 87.9583 391.667 88.1667 391.125 88.375C390.583 88.5833 389.958 88.7708 389.25 88.9375C388.583 89.1458 387.854 89.25 387.062 89.25C386.062 89.25 384.854 88.9375 383.438 88.3125C382.021 87.7292 380.625 86.7292 379.25 85.3125C377.917 83.8542 376.729 81.9583 375.688 79.625C374.646 77.25 374 74.3333 373.75 70.875C373.708 70.625 373.688 70.3958 373.688 70.1875C373.688 69.9375 373.688 69.6875 373.688 69.4375C373.688 66.7292 374.167 64.2917 375.125 62.125C376.125 59.9583 377.312 58.125 378.688 56.625C380.062 55.0833 381.479 53.8958 382.938 53.0625C384.438 52.1875 385.708 51.7083 386.75 51.625C386.958 51.5833 387.167 51.5625 387.375 51.5625C387.625 51.5625 387.854 51.5625 388.062 51.5625C389.271 51.5625 390.312 51.6875 391.188 51.9375C392.104 52.1458 392.729 52.3333 393.062 52.5C393.521 52.5833 394 52.9167 394.5 53.5C395 54.0417 395.25 55.1042 395.25 56.6875C395.25 57.1875 395.062 57.6042 394.688 57.9375C394.354 58.2708 393.958 58.4375 393.5 58.4375C393 58.4375 392.583 58.2708 392.25 57.9375C391.917 57.6042 391.75 57.1875 391.75 56.6875C391.75 56.3542 391.708 56.0208 391.625 55.6875C391.375 55.6042 390.938 55.4792 390.312 55.3125C389.688 55.1458 388.938 55.0625 388.062 55.0625C387.896 55.0625 387.729 55.0625 387.562 55.0625C387.438 55.0625 387.271 55.0833 387.062 55.125C386.396 55.2083 385.5 55.5833 384.375 56.25C383.292 56.9167 382.208 57.875 381.125 59.125C380.083 60.3333 379.167 61.8125 378.375 63.5625C377.583 65.3125 377.188 67.2917 377.188 69.5C377.188 69.7083 377.188 69.8958 377.188 70.0625C377.188 70.2292 377.208 70.4167 377.25 70.625C377.417 73.4583 377.896 75.8333 378.688 77.75C379.479 79.6667 380.375 81.2292 381.375 82.4375C382.417 83.6042 383.438 84.4583 384.438 85C385.479 85.5 386.354 85.75 387.062 85.75C387.562 85.75 388.042 85.6875 388.5 85.5625C388.958 85.4375 389.375 85.3125 389.75 85.1875C390.125 85.0208 390.417 84.8542 390.625 84.6875L390.938 84.5ZM414.188 56.5C413.812 56.5 413.062 56.7083 411.938 57.125C410.854 57.5 409.708 58.2083 408.5 59.25C407.333 60.25 406.229 61.6667 405.188 63.5C404.188 65.2917 403.562 67.6042 403.312 70.4375C404.021 70.2708 404.812 70.0833 405.688 69.875C406.604 69.6667 407.5 69.4792 408.375 69.3125C409.292 69.1042 410.146 68.9375 410.938 68.8125C411.771 68.6875 412.438 68.625 412.938 68.625C413.521 68.625 414.25 68.5 415.125 68.25C416.042 67.9583 416.938 67.6667 417.812 67.375C418.521 67.125 419.188 66.9167 419.812 66.75C420.438 66.5417 421.042 66.3542 421.625 66.1875C421.458 64.5208 421.104 63.0833 420.562 61.875C420.021 60.6667 419.396 59.6667 418.688 58.875C417.979 58.0833 417.229 57.5 416.438 57.125C415.646 56.7083 414.896 56.5 414.188 56.5ZM426 85.125C426.458 85.125 426.833 85.2708 427.125 85.5625C427.458 85.8542 427.667 86.2917 427.75 86.875C427.75 87.3333 427.604 87.7083 427.312 88C427.062 88.3333 426.708 88.5417 426.25 88.625C426.167 88.625 425.792 88.6667 425.125 88.75C424.458 88.875 423.667 89 422.75 89.125C421.833 89.25 420.875 89.3542 419.875 89.4375C418.875 89.5208 418.021 89.5625 417.312 89.5625C411.771 89.5625 407.521 88.1042 404.562 85.1875C401.604 82.2292 399.979 78.0833 399.688 72.75C399.604 70.0417 399.833 67.6667 400.375 65.625C400.958 63.5833 401.708 61.8333 402.625 60.375C403.583 58.9167 404.646 57.7083 405.812 56.75C406.979 55.7917 408.104 55.0417 409.188 54.5C410.312 53.9583 411.312 53.5833 412.188 53.375C413.104 53.125 413.771 53 414.188 53C415.271 53 416.417 53.2708 417.625 53.8125C418.875 54.3542 420.021 55.1875 421.062 56.3125C422.146 57.3958 423.062 58.7917 423.812 60.5C424.562 62.2083 425.021 64.2292 425.188 66.5625C425.438 66.8958 425.562 67.2708 425.562 67.6875C425.562 68.1042 425.438 68.4583 425.188 68.75C424.979 69.5833 424.417 70 423.5 70C423.083 70 422.729 69.875 422.438 69.625C421.312 69.875 420.146 70.2292 418.938 70.6875C417.854 71.0625 416.792 71.3958 415.75 71.6875C414.708 71.9792 413.771 72.125 412.938 72.125C412.479 72.125 411.854 72.1875 411.062 72.3125C410.312 72.4375 409.479 72.6042 408.562 72.8125C407.646 73.0208 406.708 73.25 405.75 73.5C404.833 73.7083 404 73.9167 403.25 74.125C403.417 76.7083 404 78.7917 405 80.375C406.042 81.9167 407.25 83.125 408.625 84C410.042 84.8333 411.521 85.3958 413.062 85.6875C414.646 85.9375 416.062 86.0625 417.312 86.0625C417.979 86.0625 418.792 86.0208 419.75 85.9375C420.708 85.8542 421.625 85.75 422.5 85.625C423.375 85.5 424.146 85.3958 424.812 85.3125L425.75 85.1875L426 85.125ZM485.688 84.8125C486.146 84.8958 486.5 85.125 486.75 85.5C487 85.8333 487.104 86.2917 487.062 86.875C486.854 87.8333 486.167 88.2917 485 88.25C484.958 88.25 483.979 88.125 482.062 87.875C480.188 87.5833 477.646 87.4375 474.438 87.4375C472.812 87.4375 471.146 87.5 469.438 87.625C467.729 87.75 466.167 87.875 464.75 88C463.333 88.125 462.167 88.25 461.25 88.375C460.333 88.5 459.854 88.5625 459.812 88.5625C459.771 88.5625 459.708 88.5625 459.625 88.5625C459.542 88.5625 459.333 88.5417 459 88.5C458.917 88.5 458.833 88.5 458.75 88.5C458.667 88.5417 458.542 88.5625 458.375 88.5625C457.917 88.5625 457.521 88.4167 457.188 88.125C456.896 87.8333 456.708 87.4583 456.625 87C456.625 86.875 456.562 86.3125 456.438 85.3125C456.354 84.3125 456.229 83.0833 456.062 81.625C455.896 80.125 455.729 78.4792 455.562 76.6875C455.396 74.8958 455.229 73.1458 455.062 71.4375C454.938 69.6875 454.812 68.0833 454.688 66.625C454.604 65.1667 454.562 64.0208 454.562 63.1875C454.562 61.9375 454.5 60.3333 454.375 58.375C454.292 56.4167 454.167 54.4167 454 52.375C453.833 50.2917 453.646 48.3125 453.438 46.4375C453.229 44.5625 453.021 43.0625 452.812 41.9375C452.812 41.5208 452.958 41.1458 453.25 40.8125C453.542 40.4792 453.979 40.2708 454.562 40.1875C454.979 40.1875 455.354 40.3125 455.688 40.5625C456.021 40.8125 456.229 41.1458 456.312 41.5625C456.521 42.7292 456.729 44.2917 456.938 46.25C457.146 48.1667 457.333 50.1875 457.5 52.3125C457.667 54.4375 457.792 56.5 457.875 58.5C458 60.4583 458.062 62.0208 458.062 63.1875C458.062 64.1875 458.125 65.6667 458.25 67.625C458.417 69.5833 458.604 71.6667 458.812 73.875C459.021 76.0417 459.229 78.1458 459.438 80.1875C459.646 82.2292 459.812 83.8333 459.938 85C460.438 84.9583 461.188 84.875 462.188 84.75C463.229 84.625 464.417 84.5 465.75 84.375C467.083 84.25 468.5 84.1458 470 84.0625C471.5 83.9792 472.979 83.9375 474.438 83.9375C477.812 83.9375 480.5 84.0833 482.5 84.375C484.542 84.6667 485.604 84.8125 485.688 84.8125ZM500.875 85.625C501.75 85.625 502.708 85.2292 503.75 84.4375C504.792 83.6042 505.792 82.5 506.75 81.125C507.75 79.75 508.646 78.1458 509.438 76.3125C510.229 74.4375 510.812 72.4583 511.188 70.375C510.896 68.375 510.667 66.2708 510.5 64.0625C510.333 61.8542 510.229 59.5 510.188 57C509.729 56.625 509.5 56.1667 509.5 55.625C509.208 55.5 508.896 55.3958 508.562 55.3125C508.271 55.2292 507.938 55.1875 507.562 55.1875C507.021 55.1875 506.25 55.3125 505.25 55.5625C504.25 55.7708 503.167 56.1458 502 56.6875C500.833 57.1875 499.646 57.8542 498.438 58.6875C497.271 59.5208 496.188 60.5417 495.188 61.75C494.229 62.9583 493.438 64.3542 492.812 65.9375C492.188 67.5208 491.875 69.3125 491.875 71.3125C491.875 74.4792 492.125 77 492.625 78.875C493.167 80.75 493.854 82.1875 494.688 83.1875C495.562 84.1875 496.521 84.8542 497.562 85.1875C498.646 85.4792 499.75 85.625 500.875 85.625ZM514.75 70.375C515.125 72.9583 515.562 75.2708 516.062 77.3125C516.562 79.3542 517.021 81.0833 517.438 82.5C517.896 83.9167 518.271 85.0208 518.562 85.8125C518.896 86.5625 519.062 86.9583 519.062 87C519.104 87.125 519.125 87.25 519.125 87.375C519.167 87.4583 519.188 87.5625 519.188 87.6875C519.188 88.4375 518.854 88.9792 518.188 89.3125C517.854 89.3958 517.604 89.4375 517.438 89.4375C516.646 89.4375 516.125 89.1042 515.875 88.4375C515.792 88.2708 515.396 87.2917 514.688 85.5C514.021 83.6667 513.312 81.125 512.562 77.875C511.896 79.5 511.104 81 510.188 82.375C509.312 83.75 508.354 84.9375 507.312 85.9375C506.312 86.9375 505.25 87.7083 504.125 88.25C503.042 88.8333 501.958 89.125 500.875 89.125C496.625 89.125 493.479 87.6667 491.438 84.75C489.396 81.8333 488.375 77.3542 488.375 71.3125C488.375 68.8125 488.75 66.6042 489.5 64.6875C490.25 62.7292 491.208 61.0208 492.375 59.5625C493.583 58.1042 494.917 56.875 496.375 55.875C497.875 54.875 499.333 54.0625 500.75 53.4375C502.167 52.8125 503.479 52.375 504.688 52.125C505.896 51.8333 506.854 51.6875 507.562 51.6875C508.812 51.6875 509.896 51.9375 510.812 52.4375C511.729 52.8958 512.479 53.4375 513.062 54.0625C513.688 54.6458 514.146 55.2083 514.438 55.75C514.729 56.25 514.875 56.5208 514.875 56.5625C515 56.7708 515.062 57 515.062 57.25C515.062 57.6667 514.875 58.1042 514.5 58.5625C514.875 60.5208 515.062 63.1042 515.062 66.3125C515.062 66.9792 515.021 67.6458 514.938 68.3125C514.896 68.9792 514.833 69.6667 514.75 70.375ZM545.688 82.9375C548.354 80.8958 549.688 77.8542 549.688 73.8125C549.688 70.4792 549.375 67.7292 548.75 65.5625C548.167 63.3958 547.396 61.6458 546.438 60.3125C545.521 58.9792 544.479 57.9792 543.312 57.3125C542.188 56.6458 541.062 56.1458 539.938 55.8125C539.771 55.7292 539.604 55.6875 539.438 55.6875C539.271 55.6875 539.104 55.6875 538.938 55.6875C538.354 55.6875 537.771 55.8125 537.188 56.0625C536.646 56.3125 536.167 56.6042 535.75 56.9375C535 57.5208 534.229 58.2917 533.438 59.25C532.688 60.2083 532 61.3542 531.375 62.6875C530.792 63.9792 530.312 65.4375 529.938 67.0625C529.562 68.6458 529.375 70.3542 529.375 72.1875C529.583 73.9375 529.812 75.6458 530.062 77.3125C530.312 78.9792 530.562 80.5417 530.812 82C531.271 82.3333 531.5 82.875 531.5 83.625C531.833 83.9583 532.208 84.25 532.625 84.5C533.042 84.75 533.5 84.9375 534 85.0625C534.75 85.3125 535.792 85.4375 537.125 85.4375C538.458 85.4375 539.896 85.2708 541.438 84.9375C542.979 84.5625 544.396 83.8958 545.688 82.9375ZM540.938 52.4375C545.104 53.6875 548.188 56.0625 550.188 59.5625C552.188 63.0208 553.188 67.7708 553.188 73.8125C553.188 79.1042 551.375 83.0833 547.75 85.75C546.167 86.9583 544.417 87.7917 542.5 88.25C540.625 88.7083 538.833 88.9375 537.125 88.9375C535.5 88.9375 534.125 88.7708 533 88.4375C532.75 88.3542 532.5 88.25 532.25 88.125C532 88.0417 531.771 87.9583 531.562 87.875C531.562 88.7917 530.979 89.3542 529.812 89.5625C529.396 89.5625 529.021 89.4167 528.688 89.125C528.396 88.875 528.208 88.5208 528.125 88.0625C528.083 87.9792 528 87.6042 527.875 86.9375C527.792 86.2708 527.667 85.3958 527.5 84.3125C527 83.6458 526.625 83.0625 526.375 82.5625C526.167 82.0625 526.042 81.7917 526 81.75C525.958 81.625 525.917 81.5208 525.875 81.4375C525.875 81.3125 525.875 81.1875 525.875 81.0625C525.875 80.5625 526.062 80.1458 526.438 79.8125C526.271 78.8958 526.167 77.8333 526.125 76.625C526.083 75.4167 526 74.0208 525.875 72.4375C525.667 70.0625 525.438 67.7708 525.188 65.5625C524.979 63.3125 524.875 61.3958 524.875 59.8125C524.875 57.8125 524.812 55.6875 524.688 53.4375C524.562 51.1875 524.417 49.1042 524.25 47.1875C524.125 45.2292 524 43.6042 523.875 42.3125C523.75 41.0208 523.688 40.3333 523.688 40.25C523.688 39.7917 523.833 39.4167 524.125 39.125C524.458 38.7917 524.896 38.5833 525.438 38.5C525.896 38.5 526.292 38.6667 526.625 39C526.958 39.2917 527.146 39.6667 527.188 40.125C527.188 40.25 527.25 40.9583 527.375 42.25C527.5 43.5417 527.625 45.1458 527.75 47.0625C527.917 48.9792 528.062 51.0833 528.188 53.375C528.312 55.625 528.375 57.7708 528.375 59.8125V60.8125C529.042 59.4375 529.812 58.1875 530.688 57.0625C531.562 55.8958 532.542 54.9167 533.625 54.125C535.333 52.8333 537.125 52.1875 539 52.1875C539.333 52.1875 539.646 52.2083 539.938 52.25C540.271 52.2917 540.604 52.3542 540.938 52.4375Z" fill="black"/>
</svg>
