<svg width="248" height="227" viewBox="0 0 248 227" fill="none" xmlns="http://www.w3.org/2000/svg">
<path d="M15.512 200.898C15.512 182.816 24.6273 167.318 30.9176 150.764C36.5295 135.996 42.2728 120.743 48.8037 106.375C61.7518 77.8897 78.9633 50.6249 89.5371 21.2532C90.8167 17.6985 97.2918 5.09021 102.723 7.80592C109.326 11.1072 114.789 20.9188 119.434 26.2143C131.924 40.4523 144.938 53.8479 155.99 69.2977C167.671 85.6269 177.819 100.315 187.454 117.864C193.669 129.186 201.616 139.39 207.951 150.634C215.309 163.695 220.113 177.974 228.057 190.714C231.765 196.662 241.112 207.313 241.112 214.998C241.112 220.52 212.071 217.348 209.648 217.348C156.816 217.348 104.066 219.698 51.2842 219.698C45.8137 219.698 5.19139 222.933 6.63419 214.998C7.84666 208.329 14.9696 201.983 17.862 196.198" stroke="black" stroke-width="13" stroke-linecap="round"/>
</svg>
